<?xml version="1.0" standalone="no"?><svg xmlns="http://www.w3.org/2000/svg" viewBox="0 0 1440 320"><path fill="#191a2b" fill-opacity="1" d="M0,128L30,144C60,160,120,192,180,186.7C240,181,300,139,360,144C420,149,480,203,540,197.3C600,192,660,128,720,85.3C780,43,840,21,900,21.3C960,21,1020,43,1080,74.7C1140,107,1200,149,1260,144C1320,139,1380,85,1410,58.7L1440,32L1440,320L1410,320C1380,320,1320,320,1260,320C1200,320,1140,320,1080,320C1020,320,960,320,900,320C840,320,780,320,720,320C660,320,600,320,540,320C480,320,420,320,360,320C300,320,240,320,180,320C120,320,60,320,30,320L0,320Z"></path></svg>