<?xml version="1.0" standalone="no"?><svg xmlns="http://www.w3.org/2000/svg" viewBox="0 0 1440 320"><path fill="#191a2b" fill-opacity="1" d="M0,128L30,144C60,160,120,192,180,186.7C240,181,300,139,360,144C420,149,480,203,540,197.3C600,192,660,128,720,85.3C780,43,840,21,900,21.3C960,21,1020,43,1080,74.7C1140,107,1200,149,1260,144C1320,139,1380,85,1410,58.7L1440,32L1440,0L1410,0C1380,0,1320,0,1260,0C1200,0,1140,0,1080,0C1020,0,960,0,900,0C840,0,780,0,720,0C660,0,600,0,540,0C480,0,420,0,360,0C300,0,240,0,180,0C120,0,60,0,30,0L0,0Z"></path></svg>